<svg xmlns="http://www.w3.org/2000/svg" viewBox="0 0 720 560"><defs><linearGradient id="robe" x1="0" y1="0" x2="1" y2="1"><stop stop-color="#14906D"/><stop offset="1" stop-color="#075A45"/></linearGradient><linearGradient id="blue" x1="0" y1="0" x2="1" y2="1"><stop stop-color="#6EC5EA"/><stop offset="1" stop-color="#2A8BBC"/></linearGradient><filter id="s"><feDropShadow dx="0" dy="10" stdDeviation="12" flood-opacity=".14"/></filter></defs><g opacity=".16" fill="#087A5B"><path d="M70 480V255h60V180h60v75h55v225z"/><path d="M160 180q30-65 60 0z"/><path d="M485 480V260h55v-80h60v80h50v220z"/><path d="M515 180q25-60 55 0z"/></g><path d="M0 500Q110 450 220 500T440 500T720 500V560H0Z" fill="#DDF4EB"/><g filter="url(#s)"><ellipse cx="360" cy="510" rx="250" ry="25" fill="#075A45" opacity=".12"/><g transform="translate(225 95)"><circle cx="115" cy="82" r="54" fill="#F2C7A2"/><path d="M62 77q8-70 108-32l-9 34q-54-18-99-2z" fill="#F8F4E8"/><path d="M72 135q43-18 85 1l34 205H34z" fill="url(#robe)"/><path d="M66 176q-28 48-29 123l40 6 17-113zM165 176q35 46 43 120l-38 11-25-112z" fill="#0A6C51"/><path d="M78 300q36-12 73 0l22 141H56z" fill="#08684F"/><circle cx="98" cy="82" r="4" fill="#4B362D"/><circle cx="132" cy="82" r="4" fill="#4B362D"/><path d="M99 105q16 10 31 0" fill="none" stroke="#9E624C" stroke-width="4" stroke-linecap="round"/></g><g transform="translate(420 190)"><circle cx="80" cy="60" r="40" fill="#F0C39D"/><path d="M42 54q8-48 76-25l-5 28q-38-12-71-3z" fill="#FFF"/><path d="M42 106q37-16 76 0l24 142H18z" fill="#F3F8F6"/><path d="M25 140q-18 41-16 88l30 7 13-86zM119 140q25 36 31 83l-28 10-22-82z" fill="#DCEDE7"/><circle cx="67" cy="62" r="3" fill="#4B362D"/><circle cx="92" cy="62" r="3" fill="#4B362D"/><path d="M69 79q12 8 23 0" fill="none" stroke="#9E624C" stroke-width="3" stroke-linecap="round"/></g><g transform="translate(95 205)"><circle cx="74" cy="55" r="38" fill="#F3C9A5"/><path d="M34 49q8-48 79-21l-8 28q-38-13-71-7z" fill="#FFF"/><path d="M35 97q36-15 76 0l22 140H14z" fill="url(#blue)"/><path d="M20 128q-18 45-12 91l29 8 14-87zM112 128q24 35 29 84l-27 9-20-80z" fill="#2F96C7"/><circle cx="61" cy="57" r="3" fill="#4B362D"/><circle cx="86" cy="57" r="3" fill="#4B362D"/><path d="M62 75q12 9 24 0" fill="none" stroke="#9E624C" stroke-width="3" stroke-linecap="round"/></g></g><g fill="#D8B45B"><circle cx="660" cy="75" r="5"/><path d="m620 110 5 10 11 2-8 8 2 11-10-5-10 5 2-11-8-8 11-2z"/></g></svg>