<svg xmlns="http://www.w3.org/2000/svg" viewBox="0 0 300 330"><ellipse cx="150" cy="300" rx="110" ry="20" fill="#1982B7" opacity=".14"/><circle cx="150" cy="82" r="43" fill="#F2C9A8"/><path d="M107 75q9-56 87-27l-8 34q-42-16-79-7z" fill="#FFF"/><path d="M100 132q52-24 100 0l33 145H70z" fill="#55B6E2"/><path d="M99 159 54 208l27 29 61-55zM201 159l45 30-15 35-72-42z" fill="#2D94C4"/><circle cx="136" cy="85" r="4" fill="#47352E"/><circle cx="165" cy="85" r="4" fill="#47352E"/><path d="M137 106q14 12 29 0" fill="none" stroke="#9E624C" stroke-width="4" stroke-linecap="round"/><g fill="#D8B45B"><path d="m245 58 6 12 13 2-10 10 2 14-11-6-12 6 3-14-10-10 13-2z"/><circle cx="55" cy="75" r="7"/></g></svg>