<svg xmlns="http://www.w3.org/2000/svg" viewBox="0 0 300 330"><ellipse cx="150" cy="300" rx="110" ry="20" fill="#075A45" opacity=".13"/><rect x="55" y="250" width="190" height="35" rx="12" fill="#D8B45B" opacity=".7"/><circle cx="150" cy="76" r="42" fill="#EFC39D"/><path d="M112 72q8-52 80-26l-7 30q-38-14-73-4z" fill="#FFF"/><path d="M102 126q50-25 97 0l32 135H73z" fill="#087A5B"/><path d="M103 156 65 226l35 20 45-70zM198 156l42 68-33 22-51-70z" fill="#075A45"/><path d="M92 255q55-45 116 0l-12 30H101z" fill="#0B6B53"/><rect x="90" y="222" width="120" height="25" rx="8" fill="#8A5D3B"/><path d="M100 222q50-54 100 0" fill="#FFF9EF" stroke="#D8B45B" stroke-width="6"/></svg>