<svg xmlns="http://www.w3.org/2000/svg" viewBox="0 0 320 300"><defs><linearGradient id="bg11" x1="0" y1="0" x2="1" y2="1"><stop stop-color="#FFF9EF"/><stop offset="1" stop-color="#DDF4EB"/></linearGradient></defs><rect width="320" height="300" rx="28" fill="url(#bg11)"/><path d="M55 265h210" stroke="#D8B45B" stroke-width="10" stroke-linecap="round" opacity=".65"/><circle cx="150" cy="125" r="36" fill="#EFC39D"/><path d="M114 120q7-42 70-22l-7 26q-35-12-63-4z" fill="#FFF"/><path d="M108 170q42-22 84 0l28 84h-140z" fill="#087A5B"/><path d="M115 175h70v65h-70z" fill="#087A5B"/><path d="M110 232h110" stroke="#075A45" stroke-width="28" stroke-linecap="round"/><path d="M130 180 98 218M170 180l42 38" stroke="#075A45" stroke-width="19" stroke-linecap="round"/><circle cx="138" cy="125" r="3" fill="#4B362D"/><circle cx="162" cy="125" r="3" fill="#4B362D"/><circle cx="45" cy="45" r="23" fill="#087A5B"/><text x="45" y="53" text-anchor="middle" font-family="sans-serif" font-size="22" font-weight="800" fill="#FFF">11</text></svg>